<svg width="428" height="926" viewBox="0 0 428 926" fill="none" xmlns="http://www.w3.org/2000/svg">
<g style="mix-blend-mode:overlay" opacity="0.2">
<path d="M0 926H428V0H0V123.97C24.6908 120.053 50.6976 118.094 78.0206 118.094C170.868 118.094 237.846 137.673 278.954 176.831C320.771 215.276 341.68 264.045 341.68 323.137C341.68 358.023 334.238 386.501 319.354 408.572C304.47 430.642 277.891 459.121 239.618 494.006C225.443 506.822 213.748 518.213 204.534 528.18C196.029 537.436 186.815 551.675 176.893 570.897C167.679 590.12 163.072 610.055 163.072 630.702H0V700.969C1.80713 698.861 3.71613 696.797 5.72702 694.777C25.5723 674.843 49.6702 664.875 78.0206 664.875C106.371 664.875 130.469 674.843 150.314 694.777C170.159 714.712 180.082 738.919 180.082 767.397C180.082 795.875 170.159 820.081 150.314 840.016C130.469 859.951 106.371 869.918 78.0206 869.918C49.6702 869.918 25.5723 859.951 5.72702 840.016C3.71613 837.996 1.80713 835.932 0 833.825V926Z" fill="url(#paint0_linear_2017_34)"/>
<path d="M0 562.032C8.45618 524.33 24.5404 493.111 48.2526 468.376C56.049 460.544 66.6804 450.221 80.1469 437.406C93.6133 424.591 102.827 415.691 107.789 410.708C112.75 405.012 117.357 398.248 121.609 390.417C126.571 381.874 129.051 373.686 129.051 365.855C129.051 322.425 97.5115 300.711 34.4318 300.711C22.4417 300.711 10.9644 301.453 0 302.938V562.032Z" fill="url(#paint1_linear_2017_34)"/>
</g>
<defs>
<linearGradient id="paint0_linear_2017_34" x1="330" y1="0" x2="330" y2="926" gradientUnits="userSpaceOnUse">
<stop stop-color="white"/>
<stop offset="1" stop-color="white" stop-opacity="0.31"/>
</linearGradient>
<linearGradient id="paint1_linear_2017_34" x1="330" y1="0" x2="330" y2="926" gradientUnits="userSpaceOnUse">
<stop stop-color="white"/>
<stop offset="1" stop-color="white" stop-opacity="0.31"/>
</linearGradient>
</defs>
</svg>
